<svg width="18" height="18" viewBox="0 0 18 18" fill="none" xmlns="http://www.w3.org/2000/svg">
<g id="Iconly/Light/Category">
<g id="Category">
<path id="Stroke 1" fill-rule="evenodd" clip-rule="evenodd" d="M0.900025 4.04999C0.900025 1.6873 0.925323 0.899994 4.05002 0.899994C7.17473 0.899994 7.20002 1.6873 7.20002 4.04999C7.20002 6.41269 7.20999 7.19999 4.05002 7.19999C0.890059 7.19999 0.900025 6.41269 0.900025 4.04999Z" stroke="#32D2A1" stroke-width="1.5" stroke-linecap="round" stroke-linejoin="round"/>
<path id="Stroke 3" fill-rule="evenodd" clip-rule="evenodd" d="M10.8 4.04999C10.8 1.6873 10.8253 0.899994 13.95 0.899994C17.0748 0.899994 17.1 1.6873 17.1 4.04999C17.1 6.41269 17.11 7.19999 13.95 7.19999C10.7901 7.19999 10.8 6.41269 10.8 4.04999Z" stroke="#32D2A1" stroke-width="1.5" stroke-linecap="round" stroke-linejoin="round"/>
<path id="Stroke 5" fill-rule="evenodd" clip-rule="evenodd" d="M0.900025 13.95C0.900025 11.5873 0.925323 10.8 4.05002 10.8C7.17473 10.8 7.20002 11.5873 7.20002 13.95C7.20002 16.3127 7.20999 17.1 4.05002 17.1C0.890059 17.1 0.900025 16.3127 0.900025 13.95Z" stroke="#32D2A1" stroke-width="1.5" stroke-linecap="round" stroke-linejoin="round"/>
<path id="Stroke 7" fill-rule="evenodd" clip-rule="evenodd" d="M10.8 13.95C10.8 11.5873 10.8253 10.8 13.95 10.8C17.0748 10.8 17.1 11.5873 17.1 13.95C17.1 16.3127 17.11 17.1 13.95 17.1C10.7901 17.1 10.8 16.3127 10.8 13.95Z" stroke="#32D2A1" stroke-width="1.5" stroke-linecap="round" stroke-linejoin="round"/>
</g>
</g>
</svg>
