<svg width="11" height="12" viewBox="0 0 11 12" fill="none" xmlns="http://www.w3.org/2000/svg">
<path d="M9.24944 9.47081C8.60753 10.1459 7.7857 10.5179 6.9353 10.5179C5.54146 10.5179 4.3346 9.53903 3.7666 8.12415H7.63823C7.97393 8.12415 8.24614 7.85196 8.24614 7.51623C8.24614 7.18051 7.97393 6.90832 7.63823 6.90832H3.45768C3.43377 6.70958 3.42072 6.50683 3.42072 6.30038C3.42072 6.06751 3.43711 5.83923 3.4677 5.61646H7.63823C7.97393 5.61646 8.24614 5.34426 8.24614 5.00854C8.24614 4.67282 7.97393 4.4006 7.63823 4.4006H3.79895C4.37912 3.02713 5.5667 2.08289 6.9353 2.08289C7.7857 2.08289 8.60753 2.45483 9.24944 3.12993C9.48052 3.37312 9.86512 3.38312 10.1088 3.15183C10.3522 2.92044 10.3618 2.53565 10.1308 2.29234C9.25721 1.37331 8.12241 0.867188 6.93545 0.867188C4.90876 0.867188 3.17634 2.33914 2.50407 4.40078H0.875002C0.539283 4.40078 0.26709 4.67297 0.26709 5.00869C0.26709 5.34442 0.539283 5.6166 0.875002 5.6166H2.24358C2.21895 5.84094 2.20486 6.06877 2.20486 6.30053C2.20486 6.50623 2.21561 6.7087 2.23527 6.90847H0.875002C0.539283 6.90847 0.26709 7.18066 0.26709 7.51639C0.26709 7.85211 0.539283 8.1243 0.875002 8.1243H2.47994C3.13388 10.2258 4.88381 11.7339 6.9353 11.7339C8.12234 11.7339 9.2569 11.2276 10.1305 10.3088C10.3617 10.0654 10.3522 9.68061 10.1087 9.44923C9.86543 9.21785 9.48052 9.22755 9.24944 9.47081Z" fill="#737375" fill-opacity="0.7"/>
</svg>
