<svg width="20" height="20" viewBox="0 0 20 20" fill="none" xmlns="http://www.w3.org/2000/svg">
<path d="M9.99996 12.5C10.663 12.5 11.2989 12.2366 11.7677 11.7678C12.2366 11.2989 12.5 10.663 12.5 9.99999C12.5 9.33695 12.2366 8.70106 11.7677 8.23222C11.2989 7.76338 10.663 7.49999 9.99996 7.49999C9.33692 7.49999 8.70103 7.76338 8.23219 8.23222C7.76335 8.70106 7.49996 9.33695 7.49996 9.99999C7.49996 10.663 7.76335 11.2989 8.23219 11.7678C8.70103 12.2366 9.33692 12.5 9.99996 12.5ZM9.99996 14.1667C8.89489 14.1667 7.83508 13.7277 7.05368 12.9463C6.27228 12.1649 5.83329 11.1051 5.83329 9.99999C5.83329 8.89492 6.27228 7.83511 7.05368 7.05371C7.83508 6.27231 8.89489 5.83332 9.99996 5.83332C11.105 5.83332 12.1648 6.27231 12.9462 7.05371C13.7276 7.83511 14.1666 8.89492 14.1666 9.99999C14.1666 11.1051 13.7276 12.1649 12.9462 12.9463C12.1648 13.7277 11.105 14.1667 9.99996 14.1667ZM9.99996 1.66666C10.221 1.66666 10.4329 1.75445 10.5892 1.91073C10.7455 2.06701 10.8333 2.27898 10.8333 2.49999V4.16666C10.8333 4.38767 10.7455 4.59963 10.5892 4.75591C10.4329 4.91219 10.221 4.99999 9.99996 4.99999C9.77894 4.99999 9.56698 4.91219 9.4107 4.75591C9.25442 4.59963 9.16663 4.38767 9.16663 4.16666V2.49999C9.16663 2.27898 9.25442 2.06701 9.4107 1.91073C9.56698 1.75445 9.77894 1.66666 9.99996 1.66666V1.66666ZM9.99996 15C10.221 15 10.4329 15.0878 10.5892 15.2441C10.7455 15.4003 10.8333 15.6123 10.8333 15.8333V17.5C10.8333 17.721 10.7455 17.933 10.5892 18.0892C10.4329 18.2455 10.221 18.3333 9.99996 18.3333C9.77894 18.3333 9.56698 18.2455 9.4107 18.0892C9.25442 17.933 9.16663 17.721 9.16663 17.5V15.8333C9.16663 15.6123 9.25442 15.4003 9.4107 15.2441C9.56698 15.0878 9.77894 15 9.99996 15ZM2.49996 9.16666H4.16663C4.38764 9.16666 4.5996 9.25445 4.75588 9.41073C4.91216 9.56701 4.99996 9.77898 4.99996 9.99999C4.99996 10.221 4.91216 10.433 4.75588 10.5892C4.5996 10.7455 4.38764 10.8333 4.16663 10.8333H2.49996C2.27895 10.8333 2.06698 10.7455 1.9107 10.5892C1.75442 10.433 1.66663 10.221 1.66663 9.99999C1.66663 9.77898 1.75442 9.56701 1.9107 9.41073C2.06698 9.25445 2.27895 9.16666 2.49996 9.16666ZM15.8333 9.16666H17.5C17.721 9.16666 17.9329 9.25445 18.0892 9.41073C18.2455 9.56701 18.3333 9.77898 18.3333 9.99999C18.3333 10.221 18.2455 10.433 18.0892 10.5892C17.9329 10.7455 17.721 10.8333 17.5 10.8333H15.8333C15.6123 10.8333 15.4003 10.7455 15.244 10.5892C15.0878 10.433 15 10.221 15 9.99999C15 9.77898 15.0878 9.56701 15.244 9.41073C15.4003 9.25445 15.6123 9.16666 15.8333 9.16666ZM15.8925 4.10749C16.0487 4.26376 16.1364 4.47569 16.1364 4.69666C16.1364 4.91763 16.0487 5.12955 15.8925 5.28582L14.7141 6.46416C14.6373 6.54375 14.5453 6.60723 14.4436 6.65091C14.342 6.69458 14.2326 6.71757 14.122 6.71853C14.0113 6.71949 13.9016 6.69841 13.7992 6.65651C13.6968 6.61461 13.6037 6.55273 13.5255 6.47449C13.4472 6.39624 13.3853 6.3032 13.3434 6.20078C13.3015 6.09837 13.2805 5.98864 13.2814 5.87799C13.2824 5.76734 13.3054 5.65799 13.349 5.55632C13.3927 5.45465 13.4562 5.3627 13.5358 5.28582L14.7141 4.10749C14.8704 3.95126 15.0823 3.8635 15.3033 3.8635C15.5243 3.8635 15.7362 3.95126 15.8925 4.10749ZM6.46413 13.5358C6.62035 13.6921 6.70811 13.904 6.70811 14.125C6.70811 14.346 6.62035 14.5579 6.46413 14.7142L5.28579 15.8917C5.20892 15.9712 5.11697 16.0347 5.0153 16.0784C4.91363 16.1221 4.80428 16.1451 4.69363 16.146C4.58298 16.147 4.47324 16.1259 4.37083 16.084C4.26842 16.0421 4.17537 15.9802 4.09713 15.902C4.01889 15.8237 3.95701 15.7307 3.91511 15.6283C3.87321 15.5259 3.85212 15.4161 3.85308 15.3055C3.85405 15.1948 3.87703 15.0855 3.92071 14.9838C3.96438 14.8821 4.02787 14.7902 4.10746 14.7133L5.28579 13.535C5.44207 13.3788 5.65399 13.291 5.87496 13.291C6.09593 13.291 6.30785 13.3788 6.46413 13.535V13.5358ZM5.28579 4.10749L6.46413 5.28582C6.61592 5.44299 6.69992 5.65349 6.69802 5.87199C6.69612 6.09049 6.60848 6.2995 6.45397 6.45401C6.29947 6.60851 6.09046 6.69615 5.87196 6.69805C5.65346 6.69995 5.44296 6.61595 5.28579 6.46416L4.10829 5.28582C3.96267 5.1276 3.88384 4.91921 3.88829 4.70422C3.89275 4.48923 3.98014 4.28428 4.13219 4.13222C4.28425 3.98017 4.4892 3.89278 4.70419 3.88832C4.91918 3.88387 5.12757 3.9627 5.28579 4.10832V4.10749ZM14.7141 13.5358L15.8925 14.7142C16.0443 14.8713 16.1283 15.0818 16.1264 15.3003C16.1245 15.5188 16.0368 15.7278 15.8823 15.8823C15.7278 16.0368 15.5188 16.1245 15.3003 16.1264C15.0818 16.1283 14.8713 16.0443 14.7141 15.8925L13.5358 14.7142C13.4562 14.6373 13.3927 14.5453 13.349 14.4437C13.3054 14.342 13.2824 14.2326 13.2814 14.122C13.2805 14.0113 13.3015 13.9016 13.3434 13.7992C13.3853 13.6968 13.4472 13.6037 13.5255 13.5255C13.6037 13.4473 13.6968 13.3854 13.7992 13.3435C13.9016 13.3016 14.0113 13.2805 14.122 13.2814C14.2326 13.2824 14.342 13.3054 14.4436 13.3491C14.5453 13.3927 14.6373 13.4562 14.7141 13.5358Z" fill="#737375"/>
</svg>
