<svg width="13" height="19" viewBox="0 0 13 19" fill="none" xmlns="http://www.w3.org/2000/svg">
<path d="M3.22067 14.7288H9.64924V16.0145H3.22067V14.7288ZM4.50639 17.3002H8.36353V18.5859H4.50639V17.3002ZM6.43496 0.585938C4.72999 0.585938 3.09486 1.26323 1.88927 2.46882C0.68368 3.67441 0.00638604 5.30955 0.00638604 7.01451C-0.0370876 7.9488 0.141884 8.88006 0.528576 9.73167C0.915268 10.5833 1.49863 11.3309 2.23067 11.9131C2.87353 12.5109 3.22067 12.8517 3.22067 13.4431H4.50639C4.50639 12.2602 3.79281 11.5981 3.09853 10.9617C2.49769 10.5015 2.01883 9.90112 1.7039 9.21298C1.38897 8.52484 1.24758 7.76998 1.2921 7.01451C1.2921 5.65054 1.83394 4.34243 2.79841 3.37796C3.76288 2.41349 5.07099 1.87165 6.43496 1.87165C7.79893 1.87165 9.10703 2.41349 10.0715 3.37796C11.036 4.34243 11.5778 5.65054 11.5778 7.01451C11.6216 7.77053 11.4792 8.52576 11.1631 9.21394C10.8471 9.90212 10.367 10.5022 9.76496 10.9617C9.0771 11.6045 8.36353 12.2474 8.36353 13.4431H9.64924C9.64924 12.8517 9.98996 12.5109 10.6392 11.9067C11.3708 11.3255 11.9539 10.579 12.3406 9.72846C12.7273 8.87796 12.9065 7.9478 12.8635 7.01451C12.8635 6.1703 12.6972 5.33435 12.3742 4.5544C12.0511 3.77445 11.5776 3.06577 10.9806 2.46882C10.3837 1.87187 9.67501 1.39835 8.89506 1.07528C8.11511 0.752217 7.27917 0.585938 6.43496 0.585938Z" fill="#BCBCBD"/>
</svg>
