<svg width="150" height="35" viewBox="0 0 150 35" fill="none" xmlns="http://www.w3.org/2000/svg">
<path d="M32.8554 7.90295H37.3198V26.9693C37.3198 31.5434 36.0159 34.5551 31.3747 34.5551C29.3635 34.5551 27.3745 33.8758 25.6064 32.3586L26.4904 29.0073C26.9545 29.5281 28.369 30.8188 30.4023 30.8415C31.8167 30.8641 32.8776 29.8451 32.8776 28.2374V7.90295H32.8554Z" fill="#F2F2F2"/>
<path d="M59.2437 18.4776H44.6793C44.6793 21.5572 46.801 23.8895 50.7349 23.8895C53.3428 23.8895 55.7518 22.8252 57.0336 21.5798L58.0724 24.8406C56.1054 26.6747 53.2765 27.6258 50.1824 27.6258C44.6352 27.6258 40.1487 23.4366 40.1487 17.7982C40.1487 12.0919 44.4583 7.42722 49.8509 7.42722C55.8402 7.42722 59.3763 11.5032 59.3763 17.1416C59.3542 17.5265 59.31 18.0473 59.2437 18.4776ZM49.8288 11.1635C47.2651 11.1635 45.254 12.8392 44.6352 15.5112H55.1551C54.6688 13.0203 52.8345 11.1635 49.8288 11.1635Z" fill="#F2F2F2"/>
<path d="M69.1219 20.3345C69.1219 22.7348 70.4259 23.5726 71.8624 23.5726C72.9012 23.5726 73.9399 23.3915 74.9789 22.916V26.4937C73.7189 27.0598 72.0393 27.2863 70.5143 27.2863C67.1992 27.2863 64.6797 25.6559 64.6797 20.8553V11.7751H60.9889V7.99346H64.5913L65.7626 3.53259H69.0998V7.99346H74.9348V11.7751H69.0998V20.3345H69.1219Z" fill="#F2F2F2"/>
<path d="M82.6708 0V27.0371H78.2502V0H82.6708Z" fill="#F2F2F2"/>
<path d="M122.561 16.3036C122.561 13.5637 121.258 11.8427 119.025 11.8427C117.346 11.8427 114.649 13.0202 113.368 15.579V27.0369H108.947V7.99325H113.368V10.8464C115.003 8.67255 117.566 7.49509 120.33 7.49509C124.152 7.49509 126.982 10.235 126.982 15.1488V27.0369H122.561V16.3036Z" fill="#F2F2F2"/>
<path d="M145.215 27.0371V24.5689C143.867 26.4257 141.613 27.6259 139.314 27.6259C133.877 27.6259 130.253 23.0971 130.253 17.5266C130.253 12.0014 133.899 7.42728 139.314 7.42728C141.613 7.42728 143.889 8.65009 145.215 10.5069V0H149.636V27.0371H145.215ZM145.215 21.0591V14.0167C144.133 12.5675 142.474 11.6617 140.641 11.6617C137.524 11.6617 134.961 14.3564 134.961 17.5266C134.961 20.81 137.524 23.4367 140.641 23.4367C142.452 23.4141 144.133 22.5083 145.215 21.0591Z" fill="#F2F2F2"/>
<path d="M105.39 18.4776H90.8252C90.8252 21.5572 92.9473 23.8895 96.8811 23.8895C99.4892 23.8895 101.898 22.8252 103.18 21.5798L104.219 24.8406C102.252 26.6747 99.4223 27.6258 96.3281 27.6258C90.7811 27.6258 86.295 23.4366 86.295 17.7982C86.295 12.0919 90.6046 7.42722 95.9973 7.42722C101.986 7.42722 105.522 11.5032 105.522 17.1416C105.5 17.5265 105.456 18.0473 105.39 18.4776ZM95.9752 11.1635C93.4112 11.1635 91.4002 12.8392 90.7811 15.5112H101.301C100.815 13.0203 98.9803 11.1635 95.9752 11.1635Z" fill="#F2F2F2"/>
<path d="M27.0869 0.0678711L0.345093 7.99333L11.5059 19.4286L19.8821 27.6258L27.0869 0.0678711Z" fill="#32D2A1"/>
</svg>
