<svg width="22" height="22" viewBox="0 0 22 22" fill="none" xmlns="http://www.w3.org/2000/svg">
<path d="M13.6667 8.55556V6.77778C13.6667 6.30628 13.4794 5.8541 13.146 5.5207C12.8126 5.1873 12.3604 5 11.8889 5H10.1111C9.63962 5 9.18743 5.1873 8.85403 5.5207C8.52063 5.8541 8.33333 6.30628 8.33333 6.77778V8.55556M13.6667 8.55556H17.2222C17.6937 8.55556 18.1459 8.74286 18.4793 9.07625C18.8127 9.40965 19 9.86184 19 10.3333V17.4444C19 17.9159 18.8127 18.3681 18.4793 18.7015C18.1459 19.0349 17.6937 19.2222 17.2222 19.2222H4.77778C4.30628 19.2222 3.8541 19.0349 3.5207 18.7015C3.1873 18.3681 3 17.9159 3 17.4444V10.3333C3 9.86184 3.1873 9.40965 3.5207 9.07625C3.8541 8.74286 4.30628 8.55556 4.77778 8.55556H8.33333M13.6667 8.55556H8.33333" stroke="#BCBCBD" stroke-width="1.5" stroke-linecap="round" stroke-linejoin="round"/>
</svg>
