<svg width="20" height="20" viewBox="0 0 20 20" fill="none" xmlns="http://www.w3.org/2000/svg">
<path d="M11.6667 18.3333C10.5278 18.3333 9.45143 18.1144 8.43754 17.6767C7.42365 17.2394 6.53837 16.6422 5.78171 15.885C5.02449 15.1283 4.42699 14.243 3.98921 13.2292C3.55199 12.2153 3.33337 11.1389 3.33337 9.99999C3.33337 8.84721 3.55199 7.76749 3.98921 6.76082C4.42699 5.7536 5.02449 4.87166 5.78171 4.11499C6.53837 3.35777 7.42365 2.76027 8.43754 2.32249C9.45143 1.88527 10.5278 1.66666 11.6667 1.66666C12.4167 1.66666 13.1459 1.76388 13.8542 1.95832C14.5625 2.15277 15.2223 2.43055 15.8334 2.79166C14.5695 3.52777 13.5592 4.52416 12.8025 5.78082C12.0453 7.03804 11.6667 8.44443 11.6667 9.99999C11.6667 11.5555 12.0453 12.9617 12.8025 14.2183C13.5592 15.4755 14.5695 16.4722 15.8334 17.2083C15.2223 17.5694 14.5625 17.8472 13.8542 18.0417C13.1459 18.2361 12.4167 18.3333 11.6667 18.3333ZM11.6667 16.6667H12.1042C12.2431 16.6667 12.375 16.6528 12.5 16.625C11.7084 15.7083 11.0939 14.6839 10.6567 13.5517C10.2189 12.42 10 11.2361 10 9.99999C10 8.76388 10.2189 7.57971 10.6567 6.44749C11.0939 5.31582 11.7084 4.29166 12.5 3.37499C12.375 3.34721 12.2431 3.33332 12.1042 3.33332H11.6667C9.81949 3.33332 8.24671 3.98249 6.94837 5.28082C5.64949 6.57971 5.00004 8.15277 5.00004 9.99999C5.00004 11.8472 5.64949 13.4203 6.94837 14.7192C8.24671 16.0175 9.81949 16.6667 11.6667 16.6667Z" fill="#F2F2F2"/>
</svg>
