<svg width="10" height="12" viewBox="0 0 10 12" fill="none" xmlns="http://www.w3.org/2000/svg">
<path d="M1.94118 11.835H3.23529V9.89378H7.11765V8.59967H3.23529V7.30555H6.14706C7.931 7.30555 9.38235 5.8542 9.38235 4.07026C9.38235 2.28631 7.931 0.834961 6.14706 0.834961H2.58824C2.41662 0.834961 2.25204 0.903133 2.1307 1.02448C2.00935 1.14583 1.94118 1.31041 1.94118 1.48202V6.01143H0V7.30555H1.94118V8.59967H0V9.89378H1.94118V11.835ZM3.23529 2.12908H6.14706C7.21729 2.12908 8.08823 3.00002 8.08823 4.07026C8.08823 5.14049 7.21729 6.01143 6.14706 6.01143H3.23529V2.12908Z" fill="#F2F2F2"/>
</svg>
