<svg width="24" height="25" viewBox="0 0 24 25" fill="none" xmlns="http://www.w3.org/2000/svg">
<path d="M12.2469 18.1169H4.8553C3.78546 18.1169 3.00739 17.2222 3.00739 16.228V7.38013C2.91014 6.28656 3.78546 5.39183 4.8553 5.39183H16.3318C17.4016 5.39183 18.1797 6.28656 18.1797 7.28071V11.9532" stroke="#BCBCBD" stroke-width="1.5" stroke-miterlimit="10" stroke-linecap="round" stroke-linejoin="round"/>
<path d="M6.80054 6.78361V4" stroke="#BCBCBD" stroke-width="1.5" stroke-miterlimit="10" stroke-linecap="round" stroke-linejoin="round"/>
<path d="M14.387 6.78361V4" stroke="#BCBCBD" stroke-width="1.5" stroke-miterlimit="10" stroke-linecap="round" stroke-linejoin="round"/>
<path d="M16.4289 21C18.9535 21 21.0001 18.9081 21.0001 16.3275C21.0001 13.747 18.9535 11.655 16.4289 11.655C13.9044 11.655 11.8578 13.747 11.8578 16.3275C11.8578 18.9081 13.9044 21 16.4289 21Z" stroke="#BCBCBD" stroke-width="1.5" stroke-miterlimit="10" stroke-linecap="round" stroke-linejoin="round"/>
<path d="M16.4293 14.4194V16.3275L17.4992 17.3216" stroke="#BCBCBD" stroke-width="1.5" stroke-miterlimit="10" stroke-linecap="round" stroke-linejoin="round"/>
</svg>
