<svg width="17" height="17" viewBox="0 0 17 17" fill="none" xmlns="http://www.w3.org/2000/svg">
<g clip-path="url(#clip0_9_321)">
<path d="M8.5 17C13.1944 17 17 13.1944 17 8.5C17 3.80558 13.1944 0 8.5 0C3.80558 0 0 3.80558 0 8.5C0 13.1944 3.80558 17 8.5 17Z" fill="#039BE5"/>
<path d="M3.8894 8.31583L12.0848 5.15596C12.4652 5.01854 12.7974 5.24875 12.6741 5.82392L12.6749 5.82321L11.2794 12.3973C11.176 12.8633 10.8991 12.9767 10.5116 12.7571L8.38661 11.191L7.36165 12.1784C7.24832 12.2917 7.15269 12.3873 6.93311 12.3873L7.08398 10.2248L11.0223 6.66684C11.1937 6.51596 10.9841 6.43096 10.7581 6.58113L5.89115 9.64538L3.79307 8.99088C3.33761 8.84638 3.32769 8.53542 3.8894 8.31583Z" fill="white"/>
</g>
<defs>
<clipPath id="clip0_9_321">
<rect width="17" height="17" fill="white"/>
</clipPath>
</defs>
</svg>
