<svg width="20" height="18" viewBox="0 0 20 18" fill="none" xmlns="http://www.w3.org/2000/svg">
<path d="M11.5607 2.4612V4.50307" stroke="#BCBCBD" stroke-width="1.5" stroke-linecap="round" stroke-linejoin="round"/>
<path d="M11.5607 13.8601V15.5678" stroke="#BCBCBD" stroke-width="1.5" stroke-linecap="round" stroke-linejoin="round"/>
<path d="M11.5607 10.9614V6.89366" stroke="#BCBCBD" stroke-width="1.5" stroke-linecap="round" stroke-linejoin="round"/>
<path fill-rule="evenodd" clip-rule="evenodd" d="M15.6549 15.75C17.1923 15.75 18.4375 14.5203 18.4375 13.002V10.8146C17.4202 10.8146 16.6009 10.0055 16.6009 9.00087C16.6009 7.99623 17.4202 7.18627 18.4375 7.18627L18.4366 4.99797C18.4366 3.47972 17.1905 2.25 15.654 2.25H4.34596C2.80947 2.25 1.56338 3.47972 1.56338 4.99797L1.5625 7.25753C2.57979 7.25753 3.39907 7.99623 3.39907 9.00087C3.39907 10.0055 2.57979 10.8146 1.5625 10.8146V13.002C1.5625 14.5203 2.80771 15.75 4.34508 15.75H15.6549Z" stroke="#BCBCBD" stroke-width="1.5" stroke-linecap="round" stroke-linejoin="round"/>
</svg>
