<svg width="8" height="14" viewBox="0 0 8 14" fill="none" xmlns="http://www.w3.org/2000/svg">
<path d="M4.29264 6.52365V3.63511C4.91055 3.73934 5.4932 3.9929 5.99132 4.37366C6.09062 4.44175 6.20714 4.4787 6.32777 4.48032C6.71427 4.48032 7.0294 4.16931 7.03348 3.78281C7.0343 3.61706 6.96948 3.45785 6.85296 3.33968C6.13328 2.7234 5.2306 2.35988 4.28444 2.30572V1.33739C4.28444 1.06083 4.06042 0.836806 3.78386 0.836806C3.77812 0.835993 3.77236 0.835993 3.76662 0.835993C3.48598 0.83188 3.25456 1.05593 3.25044 1.33739V2.27289C1.40407 2.40418 0.148543 3.54484 0.148543 5.06296C0.148543 6.92574 1.73232 7.44275 3.25044 7.85304V11.1355C2.44951 11.028 1.69457 10.6957 1.07582 10.1754C0.959303 10.0827 0.814855 10.031 0.665503 10.0277C0.287203 10.054 -0.00410674 10.3707 0.000793336 10.7498C-1.91648e-05 10.9156 0.0648035 11.0748 0.181323 11.1929C1.02902 11.9561 2.1188 12.3952 3.25862 12.4321V13.3348C3.25862 13.3405 3.25943 13.3462 3.25943 13.352C3.27256 13.6327 3.51136 13.8493 3.792 13.8353C4.06856 13.8353 4.29259 13.6113 4.29259 13.3348V12.4157C6.53285 12.268 7.43553 10.9057 7.43553 9.46148C7.43557 7.52481 5.81079 6.93397 4.29264 6.52365ZM3.25867 6.26106C2.3642 5.99847 1.66669 5.72767 1.66669 4.9645C1.66669 4.20132 2.29856 3.65152 3.25867 3.57768V6.26106ZM4.29264 11.1519V8.1649C5.21994 8.42749 5.94206 8.78034 5.93386 9.64198C5.93386 10.2657 5.50713 11.0042 4.29264 11.1519Z" fill="#737375" fill-opacity="0.7"/>
</svg>
