<svg width="38" height="38" viewBox="0 0 38 38" fill="none" xmlns="http://www.w3.org/2000/svg">
    <g filter="url(#filter0_b_9_347)">
    <circle cx="19" cy="19" r="19" fill="url(#paint0_linear_9_347)"/>
    <circle cx="19" cy="19" r="18.5" stroke="url(#paint1_radial_9_347)"/>
    <circle cx="19" cy="19" r="18.5" stroke="url(#paint2_radial_9_347)"/>
    </g>
    <path d="M28.7944 26.6142C28.7944 23.9132 27.1546 21.5971 24.8163 20.6022C24.8274 20.6243 23.7319 20.2281 23.7425 20.2511C23.4559 20.1845 23.1623 20.1361 22.8626 20.1089C22.8368 21.3 21.0713 22.2613 18.8974 22.2613C16.7229 22.2613 14.9581 21.3 14.9321 20.1089C14.7217 20.1281 14.514 20.1575 14.31 20.1962C11.8964 21.1565 9 23.8589 9 26.614C9 30.2134 11.9103 30.2134 15.5056 30.2134H15.5327H22.2611H22.2886C25.8841 30.2134 28.7944 30.2134 28.7944 26.6142Z" fill="#F2F2F2" fill-opacity="0.4"/>
    <path d="M18.9987 7C16.4957 7 14.4222 8.93637 14.057 11.464C14.0192 11.7247 14 11.9912 14 12.2625C14 12.3728 14.0044 12.4819 14.0101 12.5906C14.0197 12.7495 14.0346 12.9062 14.057 13.061C14.0604 13.108 14.0645 13.1549 14.0689 13.2017C14.3842 16.7686 16.4708 19.5246 18.9989 19.5246C21.5264 19.5246 23.6135 16.7685 23.9288 13.2017C23.9332 13.1549 23.9368 13.108 23.9408 13.061C23.9633 12.9061 23.978 12.7495 23.9871 12.5906C23.9933 12.4819 23.9977 12.3728 23.9977 12.2625C23.9977 11.9915 23.9781 11.7247 23.9408 11.464C23.5752 8.93646 21.5019 7 18.9986 7H18.9987Z" fill="#F2F2F2" fill-opacity="0.4"/>
    <defs>
    <filter id="filter0_b_9_347" x="-11.4786" y="-11.4786" width="60.9573" height="60.9573" filterUnits="userSpaceOnUse" color-interpolation-filters="sRGB">
    <feFlood flood-opacity="0" result="BackgroundImageFix"/>
    <feGaussianBlur in="BackgroundImageFix" stdDeviation="5.73932"/>
    <feComposite in2="SourceAlpha" operator="in" result="effect1_backgroundBlur_9_347"/>
    <feBlend mode="normal" in="SourceGraphic" in2="effect1_backgroundBlur_9_347" result="shape"/>
    </filter>
    <linearGradient id="paint0_linear_9_347" x1="-156.926" y1="-25.4917" x2="17.7164" y2="100.742" gradientUnits="userSpaceOnUse">
    <stop stop-color="white" stop-opacity="0.2"/>
    <stop offset="1" stop-color="white" stop-opacity="0"/>
    </linearGradient>
    <radialGradient id="paint1_radial_9_347" cx="0" cy="0" r="1" gradientUnits="userSpaceOnUse" gradientTransform="translate(38.1576 36.6093) rotate(-140.546) scale(50.1021 34.3738)">
    <stop stop-color="#353C46"/>
    <stop offset="1" stop-color="#151515" stop-opacity="0"/>
    </radialGradient>
    <radialGradient id="paint2_radial_9_347" cx="0" cy="0" r="1" gradientUnits="userSpaceOnUse" gradientTransform="translate(-17.5222 -8.39166) rotate(26.5462) scale(47.8274 40.9501)">
    <stop stop-color="white" stop-opacity="0.24"/>
    <stop offset="1" stop-color="white" stop-opacity="0"/>
    </radialGradient>
    </defs>
</svg>
