<svg width="29" height="22" viewBox="0 0 29 22" fill="none" xmlns="http://www.w3.org/2000/svg">
<path fill-rule="evenodd" clip-rule="evenodd" d="M17.3898 1.22427C17.3898 0.899576 17.5121 0.588178 17.7299 0.358582C17.9476 0.128986 18.2429 0 18.5508 0H27.839C28.1469 0 28.4422 0.128986 28.6599 0.358582C28.8777 0.588178 29 0.899576 29 1.22427V11.0185C29 11.3432 28.8777 11.6546 28.6599 11.8842C28.4422 12.1138 28.1469 12.2427 27.839 12.2427C27.5311 12.2427 27.2357 12.1138 27.018 11.8842C26.8003 11.6546 26.678 11.3432 26.678 11.0185V4.65224L18.2884 15.4675C18.1857 15.5997 18.0579 15.7077 17.9132 15.7847C17.7685 15.8616 17.6102 15.9058 17.4483 15.9143C17.2865 15.9229 17.1247 15.8956 16.9735 15.8342C16.8222 15.7729 16.6848 15.6788 16.5701 15.5581L10.563 9.22368L2.07364 21.5325C1.88793 21.7815 1.61791 21.9449 1.32033 21.9884C1.02275 22.0319 0.720778 21.952 0.477868 21.7656C0.234959 21.5792 0.0700262 21.3008 0.0177303 20.9888C-0.0345657 20.6769 0.0298468 20.3557 0.197432 20.0928L9.48559 6.62577C9.58417 6.48256 9.71103 6.3636 9.85741 6.27707C10.0038 6.19053 10.1662 6.13849 10.3335 6.12453C10.5008 6.11057 10.669 6.13501 10.8265 6.19618C10.9839 6.25735 11.127 6.35379 11.2457 6.47886L17.3039 12.8696L25.3892 2.44855H18.5508C18.2429 2.44855 17.9476 2.31956 17.7299 2.08997C17.5121 1.86037 17.3898 1.54897 17.3898 1.22427Z" fill="#0BD194"/>
</svg>
