<svg width="17" height="17" viewBox="0 0 17 17" fill="none" xmlns="http://www.w3.org/2000/svg">
<g clip-path="url(#clip0_9_326)">
<path d="M8.50212 0H8.49788C3.81119 0 0 3.81225 0 8.5C0 10.3594 0.59925 12.0828 1.61819 13.4821L0.558875 16.6398L3.82606 15.5954C5.17013 16.4858 6.77344 17 8.50212 17C13.1888 17 17 13.1867 17 8.5C17 3.81331 13.1888 0 8.50212 0Z" fill="#4CAF50"/>
<path d="M13.4481 12.0031C13.243 12.5821 12.4291 13.0624 11.78 13.2026C11.3358 13.2972 10.7557 13.3726 8.80284 12.563C6.3049 11.5281 4.69627 8.98982 4.5709 8.82513C4.45084 8.66045 3.56152 7.48107 3.56152 6.26132C3.56152 5.04157 4.18096 4.44763 4.43065 4.19263C4.63571 3.98332 4.97465 3.8877 5.29977 3.8877C5.40496 3.8877 5.49952 3.89301 5.58452 3.89726C5.83421 3.90788 5.95959 3.92276 6.12427 4.31695C6.32934 4.81101 6.82871 6.03076 6.88821 6.15613C6.94877 6.28151 7.00934 6.45151 6.92434 6.6162C6.84465 6.7862 6.77452 6.86163 6.64915 7.00613C6.52377 7.15063 6.40477 7.26113 6.2794 7.41626C6.16465 7.5512 6.03502 7.6957 6.17952 7.94538C6.32402 8.18976 6.8234 9.00469 7.55865 9.65919C8.50746 10.5039 9.27671 10.7738 9.5519 10.8885C9.75696 10.9735 10.0013 10.9533 10.1511 10.7939C10.3413 10.5889 10.5761 10.2489 10.8152 9.9142C10.9852 9.67407 11.1998 9.64432 11.4251 9.72932C11.6546 9.80901 12.869 10.4093 13.1187 10.5336C13.3684 10.659 13.5331 10.7185 13.5936 10.8237C13.6531 10.9289 13.6531 11.4229 13.4481 12.0031Z" fill="#FAFAFA"/>
</g>
<defs>
<clipPath id="clip0_9_326">
<rect width="17" height="17" fill="white"/>
</clipPath>
</defs>
</svg>
